<svg xmlns="http://www.w3.org/2000/svg" xmlns:xlink="http://www.w3.org/1999/xlink" viewBox="0 0 995.51 187.2"><defs><style>.cls-1{fill:url(#linear-gradient);}.cls-2{fill:#fff;}</style><linearGradient id="linear-gradient" y1="93.6" x2="214" y2="93.6" gradientUnits="userSpaceOnUse"><stop offset="0" stop-color="#e2f60f"/><stop offset="0.09" stop-color="#e4f30f"/><stop offset="1" stop-color="#fada0f"/></linearGradient></defs><title>HackShop</title><g id="Layer_2" data-name="Layer 2"><g id="Layer_1-2" data-name="Layer 1"><g id="logo"><path class="cls-1" d="M21,89.4a9.29,9.29,0,0,1-5.41,3.86A9.29,9.29,0,0,1,21,97.12c1.11,1.8,1.67,4.47,1.67,8V133.3q0,10,9.53,10h3.22v10.17H29.74q-9.64,0-14.55-4.83T10.3,134.46V104.85q0-6.43-5.79-6.44H0V88.11H4.51q5.79,0,5.79-6.44V52.06q0-9.41,4.89-14.23T29.74,33h5.67V43.17H32.19q-9.52,0-9.53,10V81.41Q22.66,86.69,21,89.4Zm193-3.8v16h-6.8q-8.8,0-8.8,10v46q0,14.6-7.7,22.1T168,187.2h-8.8V171.4H164q15.19,0,15.2-15.6V112q0-8.4,2.5-12.5t8.3-5.9q-5.81-1.8-8.3-5.9t-2.5-12.5V31.4q0-15.6-15.2-15.6h-4.8V0H168q15,0,22.7,7.5t7.7,22.1v46q0,10,8.8,10Zm-75.93,29.81a8.4,8.4,0,0,1,1.45-4.21,12.86,12.86,0,0,1-3.85.41,13.06,13.06,0,0,1-1.14-26,11,11,0,0,1-1.14-5.48,11.23,11.23,0,0,1,18.36-8.09A51.2,51.2,0,0,0,142,59.88a23.23,23.23,0,0,0-39.78,13.27A27.71,27.71,0,0,0,56.7,94.39c0,.48,0,1,.08,1.42s-.08.94-.08,1.42a50.85,50.85,0,0,0,95.07,25.12,8.38,8.38,0,0,1-13.7-6.94ZM102.23,73.15s7-33.84-20.9-36.94C62.17,34.09,56.7,24.1,56.7,24.1S53,61.56,87,66.79C97.46,67.65,102.23,73.15,102.23,73.15Z"/><path class="cls-2" d="M351.38,31v98H328.7V88.77H284.18V129H261.5V31h22.68V69.59H328.7V31Z"/><path class="cls-2" d="M430.34,60.84q9.38,8.34,9.38,25.13v43H419.28v-9.38q-6.16,10.5-23,10.5a35.6,35.6,0,0,1-15.05-2.94,22.38,22.38,0,0,1-9.73-8.12,21.12,21.12,0,0,1-3.36-11.76q0-10.5,7.91-16.52t24.43-6h17.36q0-7.14-4.34-11t-13-3.85a38,38,0,0,0-11.83,1.89,31.29,31.29,0,0,0-9.87,5.11L371,61.61a47.39,47.39,0,0,1,14.77-6.72,66.41,66.41,0,0,1,17.71-2.38Q421,52.51,430.34,60.84Zm-18.62,51.94a14.19,14.19,0,0,0,6.16-7.63v-7.7h-15q-13.44,0-13.44,8.82a7.83,7.83,0,0,0,3.29,6.65c2.19,1.64,5.2,2.45,9,2.45A19,19,0,0,0,411.72,112.78Z"/><path class="cls-2" d="M475.06,125.1a37.26,37.26,0,0,1-15-13.79,37.64,37.64,0,0,1-5.39-20,36.93,36.93,0,0,1,20.37-33.81,46.39,46.39,0,0,1,21.63-5,41.91,41.91,0,0,1,20.79,5,29.46,29.46,0,0,1,12.95,14.21l-16.94,9.1q-5.88-10.35-16.94-10.36A19.2,19.2,0,0,0,482.41,76q-5.6,5.61-5.6,15.26t5.6,15.26a19.16,19.16,0,0,0,14.14,5.6q11.2,0,16.94-10.36L530.43,111a30,30,0,0,1-12.95,14,41.41,41.41,0,0,1-20.79,5A46.27,46.27,0,0,1,475.06,125.1Z"/><path class="cls-2" d="M574.81,99.41l-10.5,10.36V129H542.47V25.07h21.84v58.8l31.92-30.24h26L590.91,85.55,625.07,129H598.61Z"/><path class="cls-2" d="M646.14,127.48q-10.85-3.15-17.43-8.19l7.7-17.08a52,52,0,0,0,15,7.42,56.17,56.17,0,0,0,17.36,2.8q9.66,0,14.28-2.87t4.62-7.63a7.3,7.3,0,0,0-2.73-5.81,20.78,20.78,0,0,0-7-3.71q-4.27-1.39-11.55-3.08A157.47,157.47,0,0,1,648,84a29.79,29.79,0,0,1-12.25-8.54q-5.12-5.88-5.11-15.68a27.28,27.28,0,0,1,4.62-15.47q4.62-6.93,13.93-11T672,29.27a75.49,75.49,0,0,1,18.34,2.24A54.4,54.4,0,0,1,706,38l-7,17.22q-13.57-7.7-27.16-7.7-9.52,0-14.07,3.08a9.42,9.42,0,0,0-4.55,8.12q0,5,5.25,7.49t16,4.83a161.51,161.51,0,0,1,18.34,5.32,30.53,30.53,0,0,1,12.25,8.4q5.11,5.75,5.11,15.54a26.74,26.74,0,0,1-4.69,15.33q-4.69,6.93-14.07,11t-22.82,4.06A80.15,80.15,0,0,1,646.14,127.48Z"/><path class="cls-2" d="M792.58,60.91q8.61,8.4,8.61,24.92V129H779.35V89.19q0-9-3.92-13.37t-11.34-4.41q-8.26,0-13.16,5.11T746,91.71V129H724.19V25.07H746v36.4a29,29,0,0,1,10.5-6.65A38,38,0,0,1,770,52.51Q784,52.51,792.58,60.91Z"/><path class="cls-2" d="M836.26,125.1a36.88,36.88,0,0,1-14.77-13.79,38,38,0,0,1-5.32-20,38,38,0,0,1,5.32-20,37,37,0,0,1,14.77-13.79,48.19,48.19,0,0,1,42.63,0,37.15,37.15,0,0,1,14.7,13.79,38.07,38.07,0,0,1,5.32,20,38,38,0,0,1-5.32,20,37.08,37.08,0,0,1-14.7,13.79,48.19,48.19,0,0,1-42.63,0Zm35.14-18.62q5.39-5.67,5.39-15.19T871.4,76.1a18.2,18.2,0,0,0-13.79-5.67,18.42,18.42,0,0,0-13.86,5.67q-5.46,5.67-5.46,15.19t5.46,15.19a18.42,18.42,0,0,0,13.86,5.67A18.2,18.2,0,0,0,871.4,106.48Z"/><path class="cls-2" d="M977.1,57.34a34.73,34.73,0,0,1,13.51,13.58,41.1,41.1,0,0,1,4.9,20.37,41.05,41.05,0,0,1-4.9,20.37,34.66,34.66,0,0,1-13.51,13.58A38.38,38.38,0,0,1,958,130.07q-14.43,0-22.68-9.1v35.14H913.47V53.63h20.86v8.68q8.11-9.8,23.66-9.8A38.38,38.38,0,0,1,977.1,57.34ZM968,106.48q5.38-5.67,5.39-15.19T968,76.1a19.6,19.6,0,0,0-27.58,0Q935,81.77,935,91.29t5.39,15.19a19.6,19.6,0,0,0,27.58,0Z"/></g></g></g></svg>